<svg width="1440" height="800" viewBox="0 0 1440 800" fill="none" xmlns="http://www.w3.org/2000/svg">
<g clip-path="url(#clip0_165_1127)">
<rect width="1440" height="800" fill="#DDEAE9"/>
<path d="M701 755C959.689 848.253 1133.77 815.321 1327.5 661.5C1458.26 557.68 1533.2 411.726 1558.3 275.385L1567 144C1569.5 185.441 1566.68 229.877 1558.3 275.385L1515.5 921.5H-17V112C-17 112 165.977 187.345 270 258C482.521 402.348 369.5 635.5 701 755Z" fill="#A6D2D0" fill-opacity="0.3"/>
<path d="M685.5 782C944.189 875.253 1118.27 842.321 1312 688.5C1442.76 584.68 1517.7 438.726 1542.8 302.385L1551.5 171C1554 212.441 1551.18 256.877 1542.8 302.385L1500 948.5H-32.5V139C-32.5 139 150.477 214.345 254.5 285C467.021 429.348 354 662.5 685.5 782Z" fill="#A6D2D0"/>
</g>
<defs>
<clipPath id="clip0_165_1127">
<rect width="1440" height="800" fill="white"/>
</clipPath>
</defs>
</svg>
